# Blender v2.79 (sub 0) OBJ File: ''
# www.blender.org
mtllib Floor.mtl
o Box001_Untitled
v -0.500000 -0.018430 0.500000
v -0.500000 -0.018429 -0.500000
v 0.499999 -0.018429 -0.500000
v 0.499999 -0.018430 0.500000
v -0.476207 0.006754 -0.289288
v -0.476207 0.006754 0.289288
v -0.289288 0.006754 0.476207
v -0.289288 0.006754 -0.476207
v 0.289288 0.006754 0.476207
v 0.476207 0.006754 0.289288
v 0.476207 0.006754 -0.289288
v 0.289288 0.006754 -0.476207
v 0.499999 0.006570 0.500000
v 0.300000 0.006570 0.500000
v -0.300000 0.006570 0.500000
v -0.500000 0.006570 0.500000
v 0.499999 0.006571 -0.500000
v 0.499999 0.006571 -0.300000
v 0.499999 0.006570 0.300000
v -0.500000 0.006571 -0.500000
v -0.300000 0.006571 -0.500000
v 0.300000 0.006571 -0.500000
v -0.500000 0.006570 0.300000
v -0.500000 0.006571 -0.300000
v 0.294411 -0.008596 0.490685
v -0.294412 -0.008596 0.490685
v 0.490685 -0.008596 0.294411
v 0.490685 -0.008595 -0.294411
v 0.294411 -0.008595 -0.490685
v -0.294412 -0.008595 -0.490685
v -0.490686 -0.008595 -0.294411
v -0.490686 -0.008596 0.294411
v 0.293318 -0.008832 0.483788
v -0.293319 -0.008832 0.483788
v 0.483788 -0.008832 0.293319
v 0.483788 -0.008832 -0.293319
v 0.293318 -0.008832 -0.483788
v -0.293319 -0.008832 -0.483788
v -0.483788 -0.008832 -0.293319
v -0.483788 -0.008832 0.293319
v 0.291009 0.003972 0.479979
v -0.291009 0.003972 0.479979
v 0.479979 0.003972 0.291009
v 0.479979 0.003973 -0.291009
v 0.291009 0.003973 -0.479980
v -0.291009 0.003973 -0.479980
v -0.479980 0.003973 -0.291009
v -0.479980 0.003972 0.291009
v 0.290328 0.006058 0.478623
v -0.290329 0.006058 0.478623
v 0.478623 0.006058 0.290328
v 0.478623 0.006059 -0.290329
v 0.290328 0.006059 -0.478623
v -0.290329 0.006059 -0.478623
v -0.478624 0.006059 -0.290329
v -0.478624 0.006058 0.290328
vt 0.836920 0.987158
vt 0.836920 0.835174
vt 0.985412 0.835174
vt 0.985412 0.987158
vt 0.875645 0.216928
vt 0.875645 0.732476
vt 0.705970 0.899033
vt 0.705970 0.050372
vt 0.180772 0.899033
vt 0.011098 0.732476
vt 0.011098 0.216928
vt 0.180772 0.050372
vt 0.225394 0.014913
vt 0.670730 0.014913
vt 0.670730 0.027980
vt 0.581501 0.027980
vt 0.314327 0.027980
vt 0.225269 0.027980
vt 0.225425 0.014913
vt 0.670766 0.014913
vt 0.670735 0.027980
vt 0.581493 0.027980
vt 0.314325 0.027980
vt 0.225269 0.027980
vt 0.670610 0.027980
vt 0.225269 0.027980
vt 0.225269 0.014913
vt 0.314499 0.014913
vt 0.581676 0.014913
vt 0.670735 0.014913
vt 0.670424 0.027980
vt 0.225086 0.027980
vt 0.225064 0.014913
vt 0.314286 0.014913
vt 0.581467 0.014913
vt 0.670527 0.014913
vt 0.011363 0.197132
vt 0.011363 0.007890
vt 0.197109 0.007890
vt 0.011363 0.197132
vt 0.011363 0.007890
vt 0.197109 0.007890
vt 0.011363 0.197132
vt 0.011363 0.007890
vt 0.197109 0.007890
vt 0.011363 0.197132
vt 0.011363 0.007890
vt 0.197109 0.007890
vt 0.815281 0.981945
vt 0.015298 0.981945
vt 0.022755 0.967677
vt 0.807834 0.967677
vt 0.980413 0.222346
vt 0.980413 0.721356
vt 0.953974 0.716658
vt 0.953974 0.226944
vt 0.815281 0.981945
vt 0.015298 0.981945
vt 0.022755 0.967677
vt 0.807834 0.967677
vt 0.980413 0.222346
vt 0.980413 0.721356
vt 0.953974 0.716658
vt 0.953974 0.226944
vt 0.815281 0.981945
vt 0.015298 0.981945
vt 0.022755 0.967677
vt 0.807834 0.967677
vt 0.980413 0.222346
vt 0.980413 0.721356
vt 0.953974 0.716658
vt 0.953974 0.226944
vt 0.815281 0.981945
vt 0.015298 0.981945
vt 0.022755 0.967677
vt 0.807834 0.967677
vt 0.980413 0.222346
vt 0.980413 0.721356
vt 0.953974 0.716658
vt 0.953974 0.226944
vt 0.024149 0.959458
vt 0.805672 0.959458
vt 0.946048 0.709403
vt 0.946048 0.234171
vt 0.024149 0.959458
vt 0.805672 0.959458
vt 0.946048 0.709403
vt 0.946048 0.234171
vt 0.024149 0.959458
vt 0.805672 0.959458
vt 0.946048 0.709403
vt 0.946048 0.234171
vt 0.024149 0.959458
vt 0.805672 0.959458
vt 0.946048 0.709403
vt 0.946048 0.234171
vt 0.027229 0.948757
vt 0.802599 0.948757
vt 0.926699 0.707496
vt 0.926699 0.236005
vt 0.027229 0.948757
vt 0.802599 0.948757
vt 0.926699 0.707496
vt 0.926699 0.236005
vt 0.027229 0.948757
vt 0.802599 0.948757
vt 0.926699 0.707496
vt 0.926699 0.236005
vt 0.027229 0.948757
vt 0.802599 0.948757
vt 0.926699 0.707496
vt 0.926699 0.236005
vt 0.028250 0.940618
vt 0.029744 0.932524
vt 0.793702 0.932525
vt 0.799082 0.940618
vt 0.920028 0.706592
vt 0.913398 0.704816
vt 0.913398 0.240522
vt 0.920028 0.237476
vt 0.028250 0.940618
vt 0.029744 0.932524
vt 0.793702 0.932525
vt 0.799082 0.940618
vt 0.920028 0.706592
vt 0.913398 0.704816
vt 0.913398 0.240522
vt 0.920028 0.237476
vt 0.028250 0.940618
vt 0.029744 0.932524
vt 0.793702 0.932525
vt 0.799082 0.940618
vt 0.920028 0.706592
vt 0.913398 0.704816
vt 0.913398 0.240522
vt 0.920028 0.237476
vt 0.028250 0.940618
vt 0.029744 0.932524
vt 0.793702 0.932525
vt 0.799082 0.940618
vt 0.920028 0.706592
vt 0.913398 0.704816
vt 0.913398 0.240522
vt 0.920028 0.237476
vn 0.0000 -1.0000 -0.0000
vn -0.1484 0.9871 -0.0606
vn -0.1484 0.9871 0.0606
vn -0.0606 0.9871 0.1484
vn -0.0606 0.9871 -0.1484
vn 0.0606 0.9871 0.1484
vn 0.1484 0.9871 0.0606
vn 0.1484 0.9871 -0.0606
vn 0.0606 0.9871 -0.1484
vn 0.0000 0.0000 1.0000
vn 1.0000 -0.0000 0.0000
vn 0.0000 0.0000 -1.0000
vn -1.0000 -0.0000 0.0000
vn 0.0000 1.0000 0.0000
vn 0.0000 0.5233 -0.8521
vn -0.5807 0.5706 -0.5807
vn -0.8521 0.5233 0.0000
vn -0.5807 0.5706 0.5807
vn 0.0000 0.5234 0.8521
vn 0.5807 0.5706 0.5807
vn 0.8521 0.5233 0.0000
vn 0.5807 0.5706 -0.5807
vn 0.0118 0.9994 -0.0324
vn -0.0118 0.9994 -0.0324
vn -0.0166 0.9994 -0.0316
vn 0.0166 0.9994 -0.0316
vn -0.0324 0.9994 -0.0118
vn -0.0316 0.9994 -0.0166
vn -0.0324 0.9994 0.0118
vn -0.0316 0.9994 0.0166
vn -0.0118 0.9994 0.0324
vn -0.0166 0.9994 0.0316
vn 0.0118 0.9994 0.0324
vn 0.0166 0.9994 0.0316
vn 0.0324 0.9994 0.0118
vn 0.0316 0.9994 0.0166
vn 0.0324 0.9994 -0.0118
vn 0.0316 0.9994 -0.0166
vn 0.0000 0.2851 0.9585
vn 0.0000 0.4005 0.9163
vn 0.6699 0.3201 0.6699
vn 0.6358 0.4376 0.6358
vn 0.9585 0.2851 0.0000
vn 0.9163 0.4005 0.0000
vn 0.6699 0.3201 -0.6699
vn 0.6358 0.4376 -0.6358
vn 0.6358 0.4375 -0.6358
vn 0.0000 0.2851 -0.9585
vn 0.0000 0.4005 -0.9163
vn -0.6699 0.3201 -0.6699
vn -0.6358 0.4375 -0.6358
vn -0.6358 0.4376 -0.6358
vn -0.9585 0.2851 0.0000
vn -0.9163 0.4004 0.0000
vn -0.9163 0.4005 0.0000
vn -0.6699 0.3201 0.6699
vn -0.6358 0.4376 0.6358
vn 0.0984 0.9668 0.2360
vn -0.0984 0.9668 0.2360
vn 0.2359 0.9668 0.0984
vn 0.2359 0.9668 -0.0984
vn 0.0984 0.9668 -0.2360
vn -0.0984 0.9668 -0.2360
vn -0.2359 0.9668 -0.0984
vn -0.2359 0.9668 0.0984
vn 0.0000 0.5452 0.8383
vn 0.5818 0.5683 0.5818
vn 0.8383 0.5451 0.0000
vn 0.8383 0.5452 0.0000
vn 0.5818 0.5684 -0.5818
vn 0.5817 0.5685 -0.5817
vn 0.0000 0.5453 -0.8382
vn -0.5819 0.5682 -0.5819
vn -0.5818 0.5684 -0.5818
vn -0.8383 0.5451 0.0000
vn -0.8383 0.5452 0.0000
vn -0.5818 0.5683 0.5818
usemtl None
s 1
f 1/1/1 2/2/1 3/3/1
f 3/3/1 4/4/1 1/1/1
f 5/5/2 6/6/3 7/7/4
f 8/8/5 5/5/2 7/7/4
f 8/8/5 7/7/4 9/9/6
f 10/10/7 11/11/8 12/12/9
f 9/9/6 10/10/7 12/12/9
f 8/8/5 9/9/6 12/12/9
f 1/13/10 4/14/10 13/15/10
f 1/13/10 13/15/10 14/16/10
f 1/13/10 14/16/10 15/17/10
f 1/13/10 15/17/10 16/18/10
f 4/19/11 3/20/11 17/21/11
f 4/19/11 17/21/11 18/22/11
f 4/19/11 18/22/11 19/23/11
f 4/19/11 19/23/11 13/24/11
f 3/25/12 2/26/12 20/27/12
f 3/25/12 20/27/12 21/28/12
f 3/25/12 21/28/12 22/29/12
f 3/25/12 22/29/12 17/30/12
f 2/31/13 1/32/13 16/33/13
f 2/31/13 16/33/13 23/34/13
f 2/31/13 23/34/13 24/35/13
f 2/31/13 24/35/13 20/36/13
f 21/37/14 20/38/14 24/39/14
f 18/40/14 17/41/14 22/42/14
f 14/43/14 13/44/14 19/45/14
f 23/46/14 16/47/14 15/48/14
f 15/49/15 14/50/15 25/51/15
f 25/51/15 26/52/15 15/49/15
f 14/53/16 19/54/16 27/55/16
f 27/55/16 25/56/16 14/53/16
f 19/57/17 18/58/17 28/59/17
f 28/59/17 27/60/17 19/57/17
f 18/61/18 22/62/18 29/63/18
f 29/63/18 28/64/18 18/61/18
f 22/65/19 21/66/19 30/67/19
f 30/67/19 29/68/19 22/65/19
f 21/69/20 24/70/20 31/71/20
f 31/71/20 30/72/20 21/69/20
f 24/73/21 23/74/21 32/75/21
f 32/75/21 31/76/21 24/73/21
f 23/77/22 15/78/22 26/79/22
f 26/79/22 32/80/22 23/77/22
f 26/52/23 25/51/24 33/81/25
f 33/81/25 34/82/26 26/52/23
f 25/56/24 27/55/27 35/83/28
f 35/83/28 33/84/25 25/56/24
f 27/60/27 28/59/29 36/85/30
f 36/85/30 35/86/28 27/60/27
f 28/64/29 29/63/31 37/87/32
f 37/87/32 36/88/30 28/64/29
f 29/68/31 30/67/33 38/89/34
f 38/89/34 37/90/32 29/68/31
f 30/72/33 31/71/35 39/91/36
f 39/91/36 38/92/34 30/72/33
f 31/76/35 32/75/37 40/93/38
f 40/93/38 39/94/36 31/76/35
f 32/80/37 26/79/23 34/95/26
f 34/95/26 40/96/38 32/80/37
f 34/82/39 33/81/39 41/97/40
f 41/97/40 42/98/40 34/82/39
f 33/84/41 35/83/41 43/99/42
f 43/99/42 41/100/42 33/84/41
f 35/86/43 36/85/43 44/101/44
f 44/101/44 43/102/44 35/86/43
f 36/88/45 37/87/45 45/103/46
f 45/103/46 44/104/47 36/88/45
f 37/90/48 38/89/48 46/105/49
f 46/105/49 45/106/49 37/90/48
f 38/92/50 39/91/50 47/107/51
f 47/107/51 46/108/52 38/92/50
f 39/94/53 40/93/53 48/109/54
f 48/109/54 47/110/55 39/94/53
f 40/96/56 34/95/56 42/111/57
f 42/111/57 48/112/57 40/96/56
f 49/113/58 9/114/6 7/115/4
f 7/115/4 50/116/59 49/113/58
f 51/117/60 10/118/7 9/119/6
f 9/119/6 49/120/58 51/117/60
f 52/121/61 11/122/8 10/123/7
f 10/123/7 51/124/60 52/121/61
f 53/125/62 12/126/9 11/127/8
f 11/127/8 52/128/61 53/125/62
f 54/129/63 8/130/5 12/131/9
f 12/131/9 53/132/62 54/129/63
f 55/133/64 5/134/2 8/135/5
f 8/135/5 54/136/63 55/133/64
f 56/137/65 6/138/3 5/139/2
f 5/139/2 55/140/64 56/137/65
f 50/141/59 7/142/4 6/143/3
f 6/143/3 56/144/65 50/141/59
f 41/97/40 49/113/66 50/116/66
f 50/116/66 42/98/40 41/97/40
f 43/99/42 51/117/67 49/120/67
f 49/120/67 41/100/42 43/99/42
f 44/101/44 52/121/68 51/124/69
f 51/124/69 43/102/44 44/101/44
f 45/103/46 53/125/70 52/128/71
f 52/128/71 44/104/47 45/103/46
f 46/105/49 54/129/72 53/132/72
f 53/132/72 45/106/49 46/105/49
f 47/107/51 55/133/73 54/136/74
f 54/136/74 46/108/52 47/107/51
f 48/109/54 56/137/75 55/140/76
f 55/140/76 47/110/55 48/109/54
f 42/111/57 50/141/77 56/144/77
f 56/144/77 48/112/57 42/111/57
